<svg width="24" height="24" viewBox="0 0 24 24" fill="none" xmlns="http://www.w3.org/2000/svg">
<path fill-rule="evenodd" clip-rule="evenodd" d="M12 2C17.5228 2 22 6.47715 22 12C22 17.5228 17.5228 22 12 22C6.47715 22 2 17.5228 2 12C2 6.47715 6.47715 2 12 2ZM12 16.0996C11.5029 16.0996 11.0996 16.5029 11.0996 17C11.0997 17.497 11.503 17.9004 12 17.9004H12.0088C12.5058 17.9004 12.9091 17.497 12.9092 17C12.9092 16.5029 12.5058 16.0996 12.0088 16.0996H12ZM11.9072 6.25195C11.3476 6.26793 10.8017 6.42876 10.3223 6.71777C9.8428 7.00682 9.44633 7.41493 9.1709 7.90234C8.8955 8.38976 8.75021 8.94016 8.75 9.5C8.75005 9.91404 9.08592 10.2498 9.5 10.25C9.91403 10.25 10.2498 9.91405 10.25 9.5C10.2502 9.19867 10.3283 8.902 10.4766 8.63965C10.6249 8.37735 10.8386 8.15752 11.0967 8.00195C11.3548 7.84639 11.6489 7.76054 11.9502 7.75195C12.2515 7.74337 12.5498 7.81252 12.8164 7.95312C13.083 8.09378 13.3087 8.30118 13.4717 8.55469C13.6346 8.80819 13.7297 9.09955 13.7471 9.40039C13.7643 9.70133 13.7032 10.0019 13.5703 10.2725C13.4374 10.543 13.237 10.7751 12.9883 10.9453C12.6249 11.1939 12.206 11.5172 11.873 11.918C11.5372 12.3223 11.25 12.8533 11.25 13.5C11.2501 13.9141 11.5858 14.25 12 14.25C12.4142 14.25 12.7499 13.9141 12.75 13.5C12.75 13.3188 12.8274 13.1156 13.0264 12.876C13.2283 12.633 13.5155 12.4019 13.8359 12.1826C14.2978 11.8664 14.6702 11.4359 14.917 10.9336C15.1637 10.4312 15.2772 9.87327 15.2451 9.31445C15.213 8.7556 15.0361 8.21405 14.7334 7.74316C14.4307 7.27248 14.0115 6.88813 13.5166 6.62695C13.0214 6.36568 12.4669 6.236 11.9072 6.25195Z" fill="white"/>
</svg>
