<svg width="24" height="24" viewBox="0 0 24 24" fill="none" xmlns="http://www.w3.org/2000/svg">
<path d="M16 2V6V2ZM8 2V6V2Z" fill="white"/>
<path d="M16 2V6M8 2V6" stroke="white" stroke-width="1.5" stroke-linecap="round" stroke-linejoin="round"/>
<path opacity="0.4" d="M11.0002 4H13.0002C16.7712 4 18.6562 4.001 19.8282 5.172C20.7716 6.11461 20.9556 7.52053 20.9915 10H2.99976C2.99976 7.5 3.2296 6.11541 4.1722 5.172C5.3432 4 7.2292 4 11.0002 4Z" fill="#F9F9F9"/>
<path d="M21 18C21 20.2091 19.2091 22 17 22H7C4.79086 22 3 20.2091 3 18V10H21V18ZM8 17.25C7.58579 17.25 7.25 17.5858 7.25 18C7.25 18.4142 7.58579 18.75 8 18.75H13C13.4142 18.75 13.75 18.4142 13.75 18C13.75 17.5858 13.4142 17.25 13 17.25H8ZM15.9912 17.25C15.577 17.25 15.2412 17.5858 15.2412 18C15.2412 18.4142 15.577 18.75 15.9912 18.75H16C16.4142 18.75 16.75 18.4142 16.75 18C16.75 17.5858 16.4142 17.25 16 17.25H15.9912ZM8 13.25C7.58579 13.25 7.25 13.5858 7.25 14C7.25 14.4142 7.58579 14.75 8 14.75H8.00879C8.423 14.75 8.75879 14.4142 8.75879 14C8.75879 13.5858 8.423 13.25 8.00879 13.25H8ZM11 13.25C10.5858 13.25 10.25 13.5858 10.25 14C10.25 14.4142 10.5858 14.75 11 14.75H16C16.4142 14.75 16.75 14.4142 16.75 14C16.75 13.5858 16.4142 13.25 16 13.25H11Z" fill="white"/>
</svg>
