<svg width="24" height="24" viewBox="0 0 24 24" fill="none" xmlns="http://www.w3.org/2000/svg">
<path fill-rule="evenodd" clip-rule="evenodd" d="M12 2C17.523 2 22 6.477 22 12C22 13.908 21.601 15.2 19.5 15.5C18.3332 15.667 17.3333 15.667 16.4824 15.667C14.7784 15.667 13.667 15.667 13 17C12.452 18.095 12.9091 18.7711 13.3691 19.4541C13.6831 19.9211 14 20.3911 14 21C14 22.116 12.842 22 12 22C6.477 22 2 17.523 2 12C2 6.477 6.477 2 12 2ZM7.98535 14.7832C7.86555 14.2441 7.33113 13.9036 6.79199 14.0234L6.7832 14.0254C6.24416 14.1452 5.9038 14.6797 6.02344 15.2188C6.14322 15.7578 6.67773 16.0982 7.2168 15.9785L7.22559 15.9766C7.76467 15.8568 8.10506 15.3223 7.98535 14.7832ZM16.5 8C15.6716 8.00001 15 8.67158 15 9.5C15 10.3284 15.6716 11 16.5 11C17.3284 11 18 10.3284 18 9.5C18 8.67157 17.3284 8 16.5 8ZM9.5 7C8.67158 7.00001 8 7.67158 8 8.5C8 9.32842 8.67158 9.99999 9.5 10C10.3284 10 11 9.32843 11 8.5C11 7.67157 10.3284 7 9.5 7Z" fill="#F9F9F9"/>
</svg>
