<svg width="24" height="24" viewBox="0 0 24 24" fill="none" xmlns="http://www.w3.org/2000/svg">
<path d="M16 2C17.886 2 18.8281 1.99994 19.4141 2.58594C20.0001 3.17194 20 4.114 20 6V18H6C5.46957 18 4.96101 18.2109 4.58594 18.5859C4.21086 18.961 4 19.4696 4 20V8C4 5.172 3.99991 3.75691 4.87891 2.87891C5.75691 1.99991 7.172 2 10 2H16ZM8.75 10.25C8.33579 10.25 8 10.5858 8 11C8 11.4142 8.33579 11.75 8.75 11.75H12.75C13.1642 11.75 13.5 11.4142 13.5 11C13.5 10.5858 13.1642 10.25 12.75 10.25H8.75ZM8.75098 6.25C8.33676 6.25 8.00098 6.58579 8.00098 7C8.00098 7.41421 8.33676 7.75 8.75098 7.75H15.751C16.1652 7.75 16.501 7.41421 16.501 7C16.501 6.58579 16.1652 6.25 15.751 6.25H8.75098Z" fill="#F9F9F9"/>
<path opacity="0.4" d="M4.58579 21.4142C4.96086 21.7893 5.46957 22 6 22H20C18.3519 21.176 18.3519 18.824 20 18H6C5.46957 18 4.96086 18.2107 4.58579 18.5858C4.21071 18.9609 4 19.4696 4 20C4 20.5304 4.21071 21.0391 4.58579 21.4142Z" fill="#F9F9F9"/>
</svg>
