<svg width="24" height="24" viewBox="0 0 24 24" fill="none" xmlns="http://www.w3.org/2000/svg">
<circle opacity="0.4" cx="16.5" cy="7.5" r="3.5" fill="#F9F9F9"/>
<circle opacity="0.4" cx="7.5" cy="7.5" r="3.5" fill="#F9F9F9"/>
<path d="M16 7C16 8.06087 15.5786 9.07828 14.8284 9.82843C14.0783 10.5786 13.0609 11 12 11C10.9391 11 9.92172 10.5786 9.17157 9.82843C8.42143 9.07828 8 8.06087 8 7C8 5.93913 8.42143 4.92172 9.17157 4.17157C9.92172 3.42143 10.9391 3 12 3C13.0609 3 14.0783 3.42143 14.8284 4.17157C15.5786 4.92172 16 5.93913 16 7Z" fill="#F9F9F9"/>
<path opacity="0.4" d="M18.714 13H15.286C14.7232 13 14.1658 13.1109 13.6458 13.3263C13.1258 13.5416 12.6533 13.8573 12.2553 14.2553C11.8573 14.6533 11.5416 15.1258 11.3263 15.6458C11.1109 16.1658 11 16.7232 11 17.286C11 18.233 11.767 19 12.714 19H21.286C22.233 19 23 18.233 23 17.286C23 16.7232 22.8891 16.1658 22.6737 15.6458C22.4584 15.1258 22.1427 14.6533 21.7447 14.2553C21.3467 13.8573 20.8742 13.5416 20.3542 13.3263C19.8342 13.1109 19.2768 13 18.714 13Z" fill="#F9F9F9"/>
<path opacity="0.4" d="M8.714 13H5.286C4.72315 13 4.16582 13.1109 3.64582 13.3263C3.12582 13.5416 2.65333 13.8573 2.25534 14.2553C1.85735 14.6533 1.54164 15.1258 1.32625 15.6458C1.11086 16.1658 1 16.7232 1 17.286C1 18.233 1.767 19 2.714 19H11.286C12.233 19 13 18.233 13 17.286C13 16.7232 12.8891 16.1658 12.6737 15.6458C12.4584 15.1258 12.1427 14.6533 11.7447 14.2553C11.3467 13.8573 10.8742 13.5416 10.3542 13.3263C9.83418 13.1109 9.27684 13 8.714 13Z" fill="#F9F9F9"/>
<path d="M14.2853 12H9.71467C8.96421 12 8.22109 12.1478 7.52776 12.435C6.83442 12.7222 6.20444 13.1431 5.67379 13.6738C5.14313 14.2044 4.72219 14.8344 4.435 15.5278C4.14781 16.2211 4 16.9642 4 17.7147C4 18.9773 5.02267 20 6.28533 20H17.7147C18.9773 20 20 18.9773 20 17.7147C20 16.9642 19.8522 16.2211 19.565 15.5278C19.2778 14.8344 18.8569 14.2044 18.3262 13.6738C17.7956 13.1431 17.1656 12.7222 16.4722 12.435C15.7789 12.1478 15.0358 12 14.2853 12Z" fill="#F9F9F9"/>
</svg>
