<svg width="24" height="24" viewBox="0 0 24 24" fill="none" xmlns="http://www.w3.org/2000/svg">
<path fill-rule="evenodd" clip-rule="evenodd" d="M15.4004 2.69178C15.5673 2.66999 15.7533 2.77589 16.125 2.98573L17.8496 3.9662C18.2286 4.1812 18.4194 4.28871 18.4854 4.44471C18.5513 4.60073 18.4817 4.8679 18.3428 5.40077C17.8399 7.33866 19.0609 9.3776 21.0107 9.9037C21.5327 10.0437 21.7945 10.1144 21.8975 10.2484C22.0004 10.3824 22 10.5997 22 11.0326V12.9672C22 13.3994 22.0001 13.6154 21.8975 13.7504C21.7945 13.8844 21.5327 13.9561 21.0107 14.0971C19.0609 14.6232 17.8408 16.6621 18.3447 18.599C18.4827 19.1319 18.5513 19.3971 18.4863 19.5541C18.4213 19.711 18.2304 19.8187 17.8506 20.0336L16.127 21.0131C15.7544 21.2248 15.5682 21.3298 15.4014 21.308C15.2344 21.285 15.0458 21.097 14.6689 20.7211C13.2089 19.2641 10.793 19.2641 9.33301 20.7211C8.95612 21.098 8.76658 21.286 8.59961 21.308C8.43274 21.3298 8.24659 21.2248 7.875 21.0131L6.15039 20.0346C5.77152 19.8186 5.58071 19.711 5.51465 19.5551C5.44866 19.3991 5.51826 19.1319 5.65723 18.599C6.1602 16.6621 4.93907 14.6232 2.98926 14.0971C2.46726 13.9561 2.20554 13.8844 2.10254 13.7504C1.99991 13.6164 2 13.3994 2 12.9672V11.0326C2 10.5997 1.99957 10.3834 2.10254 10.2484C2.20554 10.1134 2.46726 10.0437 2.98926 9.9037C4.94008 9.3776 6.16112 7.33866 5.6582 5.40077C5.52024 4.8679 5.45068 4.60071 5.5166 4.44569C5.5816 4.28869 5.77234 4.1812 6.15234 3.9662L7.87695 2.98671C8.24864 2.77488 8.43467 2.67002 8.60156 2.69178C8.76856 2.71478 8.957 2.90271 9.33398 3.2787C10.794 4.7337 13.208 4.7337 14.667 3.2787C15.044 2.9017 15.2334 2.71378 15.4004 2.69178ZM12 8.50038C11.0719 8.50038 10.1817 8.86857 9.52539 9.52479C8.86901 10.1812 8.5 11.0721 8.5 12.0004C8.50006 12.4598 8.59077 12.9148 8.7666 13.3392C8.94249 13.7639 9.20039 14.15 9.52539 14.475C9.85027 14.7998 10.2357 15.0579 10.6602 15.2338C11.0848 15.4097 11.5404 15.5004 12 15.5004C12.4596 15.5004 12.9152 15.4097 13.3398 15.2338C13.7643 15.0579 14.1497 14.7998 14.4746 14.475C14.7996 14.15 15.0575 13.7639 15.2334 13.3392C15.4092 12.9148 15.4999 12.4598 15.5 12.0004C15.5 11.0721 15.131 10.1812 14.4746 9.52479C13.8183 8.86857 12.9281 8.50038 12 8.50038Z" fill="#F9F9F9"/>
</svg>
