<svg width="24" height="24" viewBox="0 0 24 24" fill="none" xmlns="http://www.w3.org/2000/svg">
<path d="M21.011 14.0968C21.533 13.9558 21.794 13.8848 21.897 13.7508C22 13.6158 22 13.3998 22 12.9668V11.0328C22 10.5998 22 10.3828 21.897 10.2488C21.794 10.1148 21.533 10.0438 21.011 9.90384C19.061 9.37784 17.84 7.33884 18.343 5.40084C18.482 4.86784 18.551 4.60084 18.485 4.44484C18.419 4.28884 18.229 4.18084 17.85 3.96584L16.125 2.98584C15.753 2.77584 15.567 2.66984 15.4 2.69184C15.233 2.71384 15.044 2.90184 14.667 3.27884C13.208 4.73384 10.794 4.73384 9.334 3.27884C8.957 2.90284 8.769 2.71484 8.602 2.69184C8.435 2.66984 8.249 2.77484 7.877 2.98684L6.152 3.96584C5.772 4.18084 5.582 4.28884 5.517 4.44584C5.451 4.60084 5.52 4.86784 5.658 5.40084C6.161 7.33884 4.94 9.37784 2.989 9.90384C2.467 10.0438 2.206 10.1138 2.103 10.2488C2 10.3838 2 10.5998 2 11.0328V12.9668C2 13.3998 2 13.6168 2.103 13.7508C2.206 13.8848 2.467 13.9558 2.989 14.0968C4.939 14.6228 6.16 16.6618 5.657 18.5988C5.518 19.1318 5.449 19.3988 5.515 19.5548C5.581 19.7108 5.771 19.8188 6.15 20.0348L7.875 21.0128C8.247 21.2248 8.433 21.3298 8.6 21.3078C8.767 21.2858 8.956 21.0978 9.333 20.7208C10.793 19.2638 13.209 19.2638 14.669 20.7208C15.046 21.0968 15.234 21.2848 15.401 21.3078C15.568 21.3298 15.754 21.2248 16.127 21.0128L17.851 20.0338C18.231 19.8188 18.421 19.7108 18.486 19.5538C18.551 19.3968 18.483 19.1318 18.345 18.5988C17.841 16.6618 19.061 14.6228 21.011 14.0968Z" stroke="#161616" stroke-width="1.5" stroke-linecap="round"/>
<path d="M15.5 12C15.5 12.4596 15.4095 12.9148 15.2336 13.3394C15.0577 13.764 14.7999 14.1499 14.4749 14.4749C14.1499 14.7999 13.764 15.0577 13.3394 15.2336C12.9148 15.4095 12.4596 15.5 12 15.5C11.5404 15.5 11.0852 15.4095 10.6606 15.2336C10.236 15.0577 9.85013 14.7999 9.52513 14.4749C9.20012 14.1499 8.94231 13.764 8.76642 13.3394C8.59053 12.9148 8.5 12.4596 8.5 12C8.5 11.0717 8.86875 10.1815 9.52513 9.52513C10.1815 8.86875 11.0717 8.5 12 8.5C12.9283 8.5 13.8185 8.86875 14.4749 9.52513C15.1313 10.1815 15.5 11.0717 15.5 12Z" stroke="#161616" stroke-width="1.5"/>
</svg>
