<svg width="13" height="13" viewBox="0 0 13 13" fill="none" xmlns="http://www.w3.org/2000/svg">
<path d="M5 0.5H2.33333C1.868 0.5 1.63533 0.5 1.44667 0.557333C1.23658 0.620867 1.04543 0.735281 0.890171 0.890421C0.734915 1.04556 0.620358 1.23663 0.556667 1.44667C0.5 1.63533 0.5 1.868 0.5 2.33333C0.5 2.79867 0.5 3.03133 0.557333 3.22C0.620867 3.43009 0.735281 3.62124 0.890421 3.7765C1.04556 3.93175 1.23663 4.04631 1.44667 4.11C1.636 4.16733 1.86867 4.16733 2.334 4.16733H5.00067C5.466 4.16733 5.69867 4.16733 5.88733 4.11C6.09722 4.04643 6.28819 3.93208 6.44332 3.77707C6.59845 3.62206 6.71294 3.43117 6.77667 3.22133C6.834 3.032 6.834 2.79933 6.834 2.334C6.834 1.86867 6.834 1.636 6.77667 1.44733C6.7131 1.23745 6.59875 1.04648 6.44373 0.891349C6.28872 0.736221 6.09784 0.621723 5.888 0.558C5.698 0.5 5.46533 0.5 5 0.5ZM12.5 5V2.33333C12.5 1.868 12.5 1.63533 12.4427 1.44667C12.3791 1.23678 12.2647 1.04581 12.1097 0.890682C11.9547 0.735554 11.7638 0.621056 11.554 0.557333C11.3647 0.5 11.132 0.5 10.6667 0.5C10.2013 0.5 9.96867 0.5 9.78 0.557333C9.57011 0.620899 9.37914 0.735254 9.22402 0.890266C9.06889 1.04528 8.95439 1.23616 8.89067 1.446C8.83333 1.63533 8.83333 1.868 8.83333 2.33333V5C8.83333 5.46533 8.83333 5.698 8.89067 5.88667C8.95423 6.09655 9.06859 6.28752 9.2236 6.44265C9.37861 6.59778 9.56949 6.71228 9.77933 6.776C9.96867 6.83333 10.2013 6.83333 10.6667 6.83333C11.132 6.83333 11.3647 6.83333 11.5533 6.776C11.7632 6.71243 11.9542 6.59808 12.1093 6.44307C12.2644 6.28806 12.3789 6.09717 12.4427 5.88733C12.5 5.698 12.5 5.46533 12.5 5ZM9.78 12.4427C9.96867 12.5 10.2013 12.5 10.6667 12.5C11.132 12.5 11.3647 12.5 11.5533 12.4427C11.7632 12.3791 11.9542 12.2647 12.1093 12.1097C12.2644 11.9547 12.3789 11.7638 12.4427 11.554C12.5 11.3647 12.5 11.132 12.5 10.6667C12.5 10.2013 12.5 9.96867 12.4427 9.78C12.3791 9.57011 12.2647 9.37914 12.1097 9.22402C11.9547 9.06889 11.7638 8.95439 11.554 8.89067C11.3647 8.83333 11.132 8.83333 10.6667 8.83333C10.2013 8.83333 9.96867 8.83333 9.78 8.89067C9.57011 8.95423 9.37914 9.06859 9.22402 9.2236C9.06889 9.37861 8.95439 9.56949 8.89067 9.77933C8.83333 9.96867 8.83333 10.2013 8.83333 10.6667C8.83333 11.132 8.83333 11.3647 8.89067 11.5533C8.95423 11.7632 9.06859 11.9542 9.2236 12.1093C9.37861 12.2644 9.57016 12.3789 9.78 12.4427ZM4.16667 6.16667H3.16667C1.90933 6.16667 1.28133 6.16667 0.890667 6.55733C0.5 6.948 0.5 7.576 0.5 8.83333V9.83333C0.5 11.0907 0.5 11.7187 0.890667 12.1093C1.28133 12.5 1.90933 12.5 3.16667 12.5H4.16667C5.424 12.5 6.052 12.5 6.44267 12.1093C6.83333 11.7187 6.83333 11.0907 6.83333 9.83333V8.83333C6.83333 7.576 6.83333 6.948 6.44267 6.55733C6.052 6.16667 5.424 6.16667 4.16667 6.16667Z" stroke="#7A7A7A" stroke-linejoin="round"/>
</svg>
