<svg width="17" height="17" viewBox="0 0 17 17" fill="none" xmlns="http://www.w3.org/2000/svg">
<path d="M11.5834 8.25C11.5834 8.25 9.12835 11.5833 8.25002 11.5833C7.37169 11.5833 4.91669 8.25 4.91669 8.25M8.25002 11.1667V0.75" stroke="#161616" stroke-width="1.5" stroke-linecap="round" stroke-linejoin="round"/>
<path d="M12.4167 4.9165C13.3007 4.9165 14.1486 5.26769 14.7737 5.89281C15.3988 6.51794 15.75 7.36578 15.75 8.24984V10.3332C15.75 12.279 15.75 13.2515 15.3567 13.9882C15.0459 14.5696 14.5697 15.0457 13.9883 15.3565C13.2517 15.7498 12.2792 15.7498 10.3333 15.7498H6.16667C4.22167 15.7498 3.24833 15.7498 2.51167 15.3557C1.93071 15.045 1.45485 14.5691 1.14417 13.9882C0.75 13.2515 0.75 12.279 0.75 10.3332V8.249C0.750221 7.36538 1.10128 6.518 1.72602 5.89311C2.35075 5.26822 3.19804 4.91695 4.08167 4.9165H4.08333" stroke="#161616" stroke-width="1.5" stroke-linecap="round" stroke-linejoin="round"/>
</svg>
