<svg width="20" height="20" viewBox="0 0 20 20" fill="none" xmlns="http://www.w3.org/2000/svg">
<path d="M6.66668 14.1665H13.3333M6.66668 10.8332H10M10.8333 2.08317V2.49984C10.8333 4.8565 10.8333 6.03567 11.5658 6.76734C12.2975 7.49984 13.4767 7.49984 15.8333 7.49984H16.25M16.6667 8.88067V11.6665C16.6667 14.809 16.6667 16.3807 15.69 17.3565C14.7133 18.3323 13.1425 18.3332 10 18.3332C6.85751 18.3332 5.28584 18.3332 4.31001 17.3565C3.33418 16.3798 3.33334 14.809 3.33334 11.6665V7.87984C3.33334 5.17567 3.33334 3.82317 4.07168 2.90734C4.22079 2.72241 4.38925 2.55395 4.57418 2.40484C5.49168 1.6665 6.84251 1.6665 9.54668 1.6665C10.1342 1.6665 10.4283 1.6665 10.6975 1.7615C10.7531 1.7815 10.8078 1.80428 10.8617 1.82984C11.12 1.95317 11.3275 2.16067 11.7433 2.5765L15.69 6.52317C16.1725 7.00484 16.4125 7.2465 16.54 7.55234C16.6667 7.859 16.6667 8.199 16.6667 8.88067Z" stroke="#161616" stroke-width="1.5" stroke-linecap="round" stroke-linejoin="round"/>
</svg>
