<svg width="15" height="15" viewBox="0 0 15 15" fill="none" xmlns="http://www.w3.org/2000/svg">
<path d="M0.5 7.1665C0.5 7.86784 0.62 8.54117 0.841333 9.1665M0.841333 9.1665H6.5M0.841333 9.1665C1.25503 10.3366 2.02138 11.3496 3.03483 12.066C4.04827 12.7824 5.25892 13.1669 6.5 13.1665C5.47067 13.1665 4.62267 10.8332 4.512 7.83317M7.84267 5.1665H13.5013M13.5013 5.1665C13.0876 3.99641 12.3213 2.98338 11.3078 2.267C10.2944 1.55062 9.08374 1.16613 7.84267 1.1665C8.90933 1.1665 9.782 3.6745 9.83933 6.83317M13.5013 5.1665C13.6867 5.6925 13.8013 6.25184 13.8333 6.83317" stroke="#7A7A7A" stroke-linecap="round" stroke-linejoin="round"/>
<path d="M0.5 2.698C0.5 1.96667 0.5 1.6 0.624667 1.316C0.758 1.01467 0.986 0.772667 1.27 0.632667C1.538 0.5 1.88333 0.5 2.57333 0.5H3.16667C4.424 0.5 5.052 0.5 5.44267 0.913333C5.83333 1.32867 5.83333 1.99333 5.83333 3.32667V4.83267C5.83333 5.41333 5.83333 5.704 5.65733 5.804C5.48133 5.904 5.25333 5.74267 4.79733 5.42L4.72733 5.37133C4.394 5.13533 4.22733 5.018 4.038 4.95733C3.84933 4.89667 3.64867 4.89667 3.248 4.89667H2.57467C1.88333 4.89667 1.538 4.89667 1.27 4.764C0.981214 4.61921 0.752712 4.37726 0.624667 4.08067C0.5 3.79667 0.5 3.43067 0.5 2.698ZM13.8333 10.698C13.8333 9.966 13.8333 9.6 13.7087 9.316C13.5806 9.01941 13.3521 8.77745 13.0633 8.63267C12.7953 8.5 12.45 8.5 11.76 8.5H11.1667C9.90933 8.5 9.28133 8.5 8.89067 8.91333C8.5 9.32867 8.5 9.99333 8.5 11.3267V12.8327C8.5 13.4133 8.5 13.704 8.676 13.804C8.852 13.904 9.08 13.7427 9.536 13.42L9.606 13.3713C9.93933 13.1353 10.106 13.018 10.2953 12.9573C10.484 12.8967 10.6847 12.8967 11.0853 12.8967H11.7587C12.45 12.8967 12.7953 12.8967 13.0633 12.764C13.3473 12.624 13.576 12.382 13.7087 12.0807C13.8333 11.7967 13.8333 11.4307 13.8333 10.698Z" stroke="#7A7A7A"/>
</svg>
