<svg width="15" height="19" viewBox="0 0 15 19" fill="none" xmlns="http://www.w3.org/2000/svg">
<path d="M13.7022 0.75H2.83304C2.55 0.75004 2.26994 0.807752 2.00995 0.919615C1.74996 1.03148 1.51549 1.19514 1.32084 1.40063C1.1262 1.60611 0.975465 1.8491 0.877843 2.11477C0.78022 2.38044 0.737756 2.66321 0.75304 2.94583M0.75304 2.94583C0.781822 3.47806 1.0135 3.97902 1.40041 4.34562C1.78732 4.71223 2.30003 4.91659 2.83304 4.91667H10.7497C12.3214 4.91667 13.1064 4.91667 13.5947 5.405C14.083 5.89333 14.083 6.67833 14.083 8.25V14.0833C14.083 15.655 14.083 16.44 13.5947 16.9283C13.1064 17.4167 12.3214 17.4167 10.7497 17.4167H5.75304C3.39554 17.4167 2.21721 17.4167 1.48471 16.6842C0.75304 15.9525 0.75304 14.7733 0.75304 12.4167V2.94583ZM0.75304 2.94583V2.83417M2.83304 2.83333H10.7497C11.5355 2.83333 11.928 2.83333 12.1722 3.0775C12.4164 3.32167 12.4164 3.71417 12.4164 4.5M10.333 9.5H4.49971M7.83304 12.8333H4.49971" stroke="#161616" stroke-width="1.5" stroke-linecap="round" stroke-linejoin="round"/>
</svg>
