<svg width="19" height="18" viewBox="0 0 19 18" fill="none" xmlns="http://www.w3.org/2000/svg">
<path d="M5.75 9.91667H12.4167M5.75 5.75H9.08333" stroke="#161616" stroke-width="1.5" stroke-linecap="round" stroke-linejoin="round"/>
<path d="M4.16583 14.5C3.08306 14.3933 2.27 14.0678 1.72667 13.5233C0.75 12.5475 0.75 10.9758 0.75 7.83333V7.41667C0.75 4.27417 0.75 2.7025 1.72667 1.72667C2.70333 0.750833 4.27417 0.75 7.41667 0.75H10.75C13.8925 0.75 15.4642 0.75 16.44 1.72667C17.4158 2.70333 17.4167 4.27417 17.4167 7.41667V7.83333C17.4167 10.9758 17.4167 12.5475 16.44 13.5233C15.4633 14.4992 13.8925 14.5 10.75 14.5C10.2833 14.51 9.91083 14.5458 9.54583 14.6292C8.54667 14.8592 7.62167 15.3708 6.70833 15.8158C5.40583 16.4508 4.755 16.7683 4.34667 16.4708C3.565 15.8892 4.32917 14.085 4.5 13.25" stroke="#161616" stroke-width="1.5" stroke-linecap="round"/>
</svg>
