<svg width="13" height="12" viewBox="0 0 13 12" fill="none" xmlns="http://www.w3.org/2000/svg">
<path d="M0.5 2.5H2.5M0.5 9.16667H4.5M10.5 9.16667H12.5M8.5 2.5H12.5" stroke="#7A7A7A" stroke-linecap="round" stroke-linejoin="round"/>
<path d="M2.5 2.5C2.5 1.87867 2.5 1.568 2.60133 1.32333C2.66834 1.16145 2.7666 1.01437 2.89048 0.890482C3.01437 0.766597 3.16145 0.668342 3.32333 0.601333C3.568 0.5 3.87867 0.5 4.5 0.5C5.12133 0.5 5.432 0.5 5.67667 0.601333C5.83855 0.668342 5.98563 0.766597 6.10952 0.890482C6.2334 1.01437 6.33166 1.16145 6.39867 1.32333C6.5 1.568 6.5 1.87867 6.5 2.5C6.5 3.12133 6.5 3.432 6.39867 3.67667C6.33166 3.83855 6.2334 3.98563 6.10952 4.10952C5.98563 4.2334 5.83855 4.33166 5.67667 4.39867C5.432 4.5 5.12133 4.5 4.5 4.5C3.87867 4.5 3.568 4.5 3.32333 4.39867C3.16145 4.33166 3.01437 4.2334 2.89048 4.10952C2.7666 3.98563 2.66834 3.83855 2.60133 3.67667C2.5 3.432 2.5 3.12133 2.5 2.5ZM6.5 9.16667C6.5 8.54533 6.5 8.23467 6.60133 7.99C6.66834 7.82812 6.7666 7.68103 6.89048 7.55715C7.01437 7.43326 7.16145 7.33501 7.32333 7.268C7.568 7.16667 7.87867 7.16667 8.5 7.16667C9.12133 7.16667 9.432 7.16667 9.67667 7.268C9.83855 7.33501 9.98563 7.43326 10.1095 7.55715C10.2334 7.68103 10.3317 7.82812 10.3987 7.99C10.5 8.23467 10.5 8.54533 10.5 9.16667C10.5 9.788 10.5 10.0987 10.3987 10.3433C10.3317 10.5052 10.2334 10.6523 10.1095 10.7762C9.98563 10.9001 9.83855 10.9983 9.67667 11.0653C9.432 11.1667 9.12133 11.1667 8.5 11.1667C7.87867 11.1667 7.568 11.1667 7.32333 11.0653C7.16145 10.9983 7.01437 10.9001 6.89048 10.7762C6.7666 10.6523 6.66834 10.5052 6.60133 10.3433C6.5 10.0987 6.5 9.788 6.5 9.16667Z" stroke="#7A7A7A"/>
</svg>
