<svg width="13" height="12" viewBox="0 0 13 12" fill="none" xmlns="http://www.w3.org/2000/svg">
<path d="M9.16667 11.1665V9.81317C9.16667 8.98517 8.79333 8.17317 8.04 7.82984C7.12067 7.4105 6.01867 7.1665 4.83333 7.1665C3.648 7.1665 2.546 7.4105 1.62667 7.82984C0.873333 8.17317 0.5 8.98517 0.5 9.81317V11.1665M11.8333 11.1672V9.81384C11.8333 8.98584 11.46 8.17384 10.7067 7.8305C10.5333 7.7505 10.3533 7.67762 10.1667 7.61184" stroke="#161616" stroke-linecap="round" stroke-linejoin="round"/>
<path d="M4.83333 5.16667C6.122 5.16667 7.16667 4.122 7.16667 2.83333C7.16667 1.54467 6.122 0.5 4.83333 0.5C3.54467 0.5 2.5 1.54467 2.5 2.83333C2.5 4.122 3.54467 5.16667 4.83333 5.16667Z" stroke="#161616" stroke-linecap="round"/>
<path d="M8.16675 0.59668C8.64803 0.740702 9.07002 1.03612 9.37003 1.43907C9.67005 1.84201 9.83209 2.33098 9.83209 2.83335C9.83209 3.33571 9.67005 3.82468 9.37003 4.22762C9.07002 4.63057 8.64803 4.92599 8.16675 5.07001" stroke="#161616" stroke-linecap="round" stroke-linejoin="round"/>
</svg>
