<svg width="18" height="18" viewBox="0 0 18 18" fill="none" xmlns="http://www.w3.org/2000/svg">
<path d="M11.1275 8.99569C11.0017 9.51819 10.405 9.88735 9.21085 10.6249C8.05835 11.3382 7.48169 11.6957 7.01669 11.5524C6.8214 11.4898 6.64607 11.3768 6.50835 11.2249C6.16669 10.8499 6.16669 10.1215 6.16669 8.66652C6.16669 7.21152 6.16669 6.48319 6.50835 6.10819C6.65002 5.95319 6.82502 5.84069 7.01669 5.78152C7.48169 5.63735 8.05835 5.99485 9.21169 6.70819C10.405 7.44652 11.0017 7.81569 11.1284 8.33735C11.1801 8.55375 11.1801 8.77929 11.1284 8.99569H11.1275Z" stroke="#161616" stroke-width="1.5" stroke-linejoin="round"/>
<path d="M0.75 8.66667C0.75 4.935 0.75 3.06833 1.90917 1.90917C3.06833 0.75 4.93417 0.75 8.66667 0.75C12.3983 0.75 14.265 0.75 15.4242 1.90917C16.5833 3.06833 16.5833 4.93417 16.5833 8.66667C16.5833 12.3983 16.5833 14.265 15.4242 15.4242C14.265 16.5833 12.3992 16.5833 8.66667 16.5833C4.935 16.5833 3.06833 16.5833 1.90917 15.4242C0.75 14.265 0.75 12.3992 0.75 8.66667Z" stroke="#161616" stroke-width="1.5"/>
</svg>
