<svg width="24" height="24" viewBox="0 0 24 24" fill="none" xmlns="http://www.w3.org/2000/svg">
<path d="M22 12C22 6.477 17.523 2 12 2C6.477 2 2 6.477 2 12C2 17.523 6.477 22 12 22C12.842 22 14 22.116 14 21C14 20.391 13.683 19.921 13.369 19.454C12.909 18.771 12.452 18.095 13 17C13.667 15.667 14.778 15.667 16.482 15.667C17.333 15.667 18.333 15.667 19.5 15.5C21.601 15.2 22 13.908 22 12Z" stroke="#161616" stroke-width="1.5"/>
<path d="M7 15.002L7.009 15" stroke="#161616" stroke-width="2" stroke-linecap="round" stroke-linejoin="round"/>
<path d="M9.5 10C10.3284 10 11 9.32843 11 8.5C11 7.67157 10.3284 7 9.5 7C8.67157 7 8 7.67157 8 8.5C8 9.32843 8.67157 10 9.5 10Z" stroke="#161616" stroke-width="1.5"/>
<path d="M16.5 11C17.3284 11 18 10.3284 18 9.5C18 8.67157 17.3284 8 16.5 8C15.6716 8 15 8.67157 15 9.5C15 10.3284 15.6716 11 16.5 11Z" stroke="#161616" stroke-width="1.5"/>
</svg>
