<svg width="24" height="24" viewBox="0 0 24 24" fill="none" xmlns="http://www.w3.org/2000/svg">
<path fill-rule="evenodd" clip-rule="evenodd" d="M12 3.50004C13.7303 3.49715 15.4568 3.66683 17.1533 4.00687C19.1631 4.41582 20.1671 4.62103 21.083 5.79886C22 6.97686 22 8.33115 22 11.0371V12.9629C22 15.6689 22 17.0222 21.083 18.2012C20.1671 19.3791 19.1631 19.5832 17.1533 19.9932C15.5453 20.3212 13.81 20.5 12 20.5C10.19 20.5 8.45468 20.3212 6.84668 19.9932C4.83691 19.5842 3.83293 19.3791 2.91699 18.2012C1.99999 17.0232 2 15.6689 2 12.9629V11.0371C2 8.33115 1.99999 6.97786 2.91699 5.79886C3.83293 4.62103 4.83693 4.41682 6.84668 4.00687C8.45468 3.67887 10.19 3.50004 12 3.50004ZM13.4453 9.77543C11.7273 8.82843 10.8679 8.3561 10.1729 8.5391C9.93802 8.60009 9.71999 8.70863 9.53809 8.8555C9.00009 9.2905 9 10.194 9 12C9 13.8058 9.00017 14.7086 9.53809 15.1436C9.72506 15.2927 9.94128 15.4012 10.1729 15.461C10.8679 15.644 11.7273 15.1707 13.4453 14.2237C15.0241 13.3528 15.8139 12.9185 15.9619 12.3125C16.0119 12.1066 16.0119 11.8925 15.9619 11.6866C15.8137 11.0807 15.025 10.6453 13.4453 9.77543Z" fill="white"/>
</svg>
