<svg width="24" height="24" viewBox="0 0 24 24" fill="none" xmlns="http://www.w3.org/2000/svg">
<path d="M16 4C16.6877 3.9998 17.3546 4.23587 17.889 4.66869C18.4234 5.1015 18.7929 5.70477 18.9356 6.37749C19.0783 7.05021 18.9855 7.75153 18.6728 8.36402C18.3602 8.97652 17.8465 9.463 17.218 9.742M17.714 13C18.2768 13 18.8342 13.1109 19.3542 13.3263C19.8742 13.5416 20.3467 13.8573 20.7447 14.2553C21.1427 14.6533 21.4584 15.1258 21.6737 15.6458C21.8891 16.1658 22 16.7232 22 17.286C22 18.233 21.233 19 20.286 19M8 4C7.31231 3.9998 6.64543 4.23587 6.11103 4.66869C5.57662 5.1015 5.20714 5.70477 5.06444 6.37749C4.92174 7.05021 5.0145 7.75153 5.32717 8.36402C5.63984 8.97652 6.15345 9.463 6.782 9.742M3.714 19C3.25942 19 2.82346 18.8194 2.50202 18.498C2.18058 18.1765 2 17.7406 2 17.286C2 16.7232 2.11086 16.1658 2.32625 15.6458C2.54164 15.1258 2.85735 14.6533 3.25534 14.2553C3.65333 13.8573 4.12582 13.5416 4.64582 13.3263C5.16582 13.1109 5.72315 13 6.286 13M15 8C15 8.79565 14.6839 9.55871 14.1213 10.1213C13.5587 10.6839 12.7956 11 12 11C11.2044 11 10.4413 10.6839 9.87868 10.1213C9.31607 9.55871 9 8.79565 9 8C9 7.20435 9.31607 6.44129 9.87868 5.87868C10.4413 5.31607 11.2044 5 12 5C12.7956 5 13.5587 5.31607 14.1213 5.87868C14.6839 6.44129 15 7.20435 15 8ZM13.714 14H10.286C9.72315 14 9.16582 14.1109 8.64582 14.3263C8.12582 14.5416 7.65333 14.8573 7.25534 15.2553C6.85735 15.6533 6.54164 16.1258 6.32625 16.6458C6.11086 17.1658 6 17.7232 6 18.286C6 19.233 6.767 20 7.714 20H16.286C17.233 20 18 19.233 18 18.286C18 17.7232 17.8891 17.1658 17.6737 16.6458C17.4584 16.1258 17.1427 15.6533 16.7447 15.2553C16.3467 14.8573 15.8742 14.5416 15.3542 14.3263C14.8342 14.1109 14.2768 14 13.714 14Z" stroke="#161616" stroke-width="1.5" stroke-linecap="round" stroke-linejoin="round"/>
</svg>
