<svg width="15" height="13" viewBox="0 0 15 13" fill="none" xmlns="http://www.w3.org/2000/svg">
<path d="M4.83333 2.83333C4.83333 1.89733 4.83333 1.42867 5.058 1.09267C5.1553 0.947019 5.28035 0.82197 5.426 0.724667C5.762 0.5 6.23067 0.5 7.16667 0.5C8.10267 0.5 8.57133 0.5 8.90733 0.724667C9.05298 0.82197 9.17803 0.947019 9.27533 1.09267C9.5 1.42867 9.5 1.89733 9.5 2.83333M13.8333 7.83333V7.5C13.8333 5.3 13.8333 4.2 13.15 3.51667C12.4667 2.83333 11.3667 2.83333 9.16667 2.83333H5.16667C2.96667 2.83333 1.86667 2.83333 1.18333 3.51667C0.5 4.2 0.5 5.3 0.5 7.5V7.83333C0.5 10.0333 0.5 11.1333 1.18333 11.8167C1.86667 12.5 2.96667 12.5 5.16667 12.5H9.16667C11.3667 12.5 12.4667 12.5 13.15 11.8167C13.8333 11.1333 13.8333 10.0333 13.8333 7.83333Z" stroke="#161616" stroke-linecap="round" stroke-linejoin="round"/>
<path d="M0.5 5.8335C0.5 5.8335 2.25467 8.50016 7.16667 8.50016C12.0787 8.50016 13.8333 5.8335 13.8333 5.8335" stroke="#161616" stroke-linecap="round"/>
<path d="M7.1665 6.5H7.1725" stroke="black" stroke-width="2" stroke-linecap="round" stroke-linejoin="round"/>
</svg>
