<svg width="17" height="17" viewBox="0 0 17 17" fill="none" xmlns="http://www.w3.org/2000/svg">
<mask id="mask0_2142_8141" style="mask-type:luminance" maskUnits="userSpaceOnUse" x="0" y="0" width="17" height="17">
<path fill-rule="evenodd" clip-rule="evenodd" d="M0.0833333 16.1092C0.0676306 16.1657 0.0671077 16.2253 0.0818173 16.2821C0.096527 16.3389 0.125949 16.3907 0.167113 16.4325C0.208278 16.4742 0.259728 16.5044 0.316273 16.5199C0.372817 16.5354 0.432455 16.5358 0.489167 16.5209L4.32833 15.5175C5.5464 16.1773 6.90973 16.523 8.295 16.5234H8.29834C12.87 16.5234 16.5967 12.8184 16.5967 8.26337C16.5995 7.17716 16.3862 6.10124 15.9693 5.09821C15.5525 4.09519 14.9402 3.18509 14.1683 2.42087C13.3977 1.65038 12.4824 1.03985 11.475 0.624393C10.4676 0.208934 9.38803 -0.00325298 8.29834 3.76957e-05C3.72667 3.76957e-05 0 3.70504 0 8.25921C0 9.70837 0.381667 11.1317 1.10833 12.3875L0.0833333 16.1092ZM5.66833 4.30837C5.82083 4.31254 5.99 4.32087 6.15083 4.67754C6.2575 4.91504 6.43667 5.35254 6.58333 5.70921C6.6975 5.98671 6.79083 6.21504 6.81417 6.26171C6.86833 6.36837 6.90084 6.49087 6.83083 6.63504L6.8075 6.68337C6.75083 6.80004 6.71083 6.88337 6.61583 6.99171L6.49667 7.13337C6.42583 7.22004 6.355 7.30504 6.295 7.36504C6.1875 7.47171 6.07667 7.58671 6.2 7.80004C6.32333 8.01337 6.75667 8.71504 7.39583 9.28087C7.86332 9.70251 8.39972 10.0408 8.98167 10.2809C9.04 10.3059 9.08722 10.327 9.12333 10.3442C9.3375 10.4509 9.465 10.4342 9.58834 10.2909C9.7125 10.1467 10.1242 9.66671 10.2692 9.45337C10.4092 9.24004 10.5525 9.27337 10.7508 9.34671C10.9492 9.42087 12.0042 9.93837 12.2183 10.0442L12.3375 10.1025C12.4867 10.1734 12.5875 10.2225 12.6308 10.2942C12.6842 10.385 12.6842 10.8109 12.5075 11.3125C12.3258 11.8125 11.4517 12.2925 11.0558 12.3292L10.9433 12.3425C10.58 12.3859 10.12 12.4425 8.48 11.7967C6.45833 11.0017 5.12417 9.03004 4.855 8.63087L4.81083 8.56754L4.80667 8.56087C4.68333 8.39671 3.9325 7.39254 3.9325 6.35587C3.9325 5.36421 4.42167 4.84754 4.64417 4.61254L4.68333 4.57087C4.75535 4.48952 4.84335 4.42385 4.94184 4.37798C5.04033 4.3321 5.14722 4.30699 5.25583 4.30421C5.4 4.30421 5.545 4.30421 5.66833 4.30837Z" fill="white"/>
</mask>
<g mask="url(#mask0_2142_8141)">
<path fill-rule="evenodd" clip-rule="evenodd" d="M0.0833333 16.1092C0.0676306 16.1657 0.0671077 16.2253 0.0818173 16.2821C0.096527 16.3389 0.125949 16.3907 0.167113 16.4325C0.208278 16.4742 0.259728 16.5044 0.316273 16.5199C0.372817 16.5354 0.432455 16.5358 0.489167 16.5209L4.32833 15.5175C5.5464 16.1773 6.90973 16.523 8.295 16.5234H8.29834C12.87 16.5234 16.5967 12.8184 16.5967 8.26337C16.5995 7.17716 16.3862 6.10124 15.9693 5.09821C15.5525 4.09519 14.9402 3.18509 14.1683 2.42087C13.3977 1.65038 12.4824 1.03985 11.475 0.624393C10.4676 0.208934 9.38803 -0.00325298 8.29834 3.76957e-05C3.72667 3.76957e-05 0 3.70504 0 8.25921C0 9.70837 0.381667 11.1317 1.10833 12.3875L0.0833333 16.1092ZM5.66833 4.30837C5.82083 4.31254 5.99 4.32087 6.15083 4.67754C6.2575 4.91504 6.43667 5.35254 6.58333 5.70921C6.6975 5.98671 6.79083 6.21504 6.81417 6.26171C6.86833 6.36837 6.90084 6.49087 6.83083 6.63504L6.8075 6.68337C6.75083 6.80004 6.71083 6.88337 6.61583 6.99171L6.49667 7.13337C6.42583 7.22004 6.355 7.30504 6.295 7.36504C6.1875 7.47171 6.07667 7.58671 6.2 7.80004C6.32333 8.01337 6.75667 8.71504 7.39583 9.28087C7.86332 9.70251 8.39972 10.0408 8.98167 10.2809C9.04 10.3059 9.08722 10.327 9.12333 10.3442C9.3375 10.4509 9.465 10.4342 9.58834 10.2909C9.7125 10.1467 10.1242 9.66671 10.2692 9.45337C10.4092 9.24004 10.5525 9.27337 10.7508 9.34671C10.9492 9.42087 12.0042 9.93837 12.2183 10.0442L12.3375 10.1025C12.4867 10.1734 12.5875 10.2225 12.6308 10.2942C12.6842 10.385 12.6842 10.8109 12.5075 11.3125C12.3258 11.8125 11.4517 12.2925 11.0558 12.3292L10.9433 12.3425C10.58 12.3859 10.12 12.4425 8.48 11.7967C6.45833 11.0017 5.12417 9.03004 4.855 8.63087L4.81083 8.56754L4.80667 8.56087C4.68333 8.39671 3.9325 7.39254 3.9325 6.35587C3.9325 5.36421 4.42167 4.84754 4.64417 4.61254L4.68333 4.57087C4.75535 4.48952 4.84335 4.42385 4.94184 4.37798C5.04033 4.3321 5.14722 4.30699 5.25583 4.30421C5.4 4.30421 5.545 4.30421 5.66833 4.30837Z" fill="#438951" stroke="#438951" stroke-width="2" stroke-linejoin="round"/>
</g>
</svg>
