<svg width="20" height="20" viewBox="0 0 20 20" fill="none" xmlns="http://www.w3.org/2000/svg">
<path d="M16.2858 1.6665H5.41666C5.13362 1.66654 4.85356 1.72426 4.59357 1.83612C4.33358 1.94798 4.0991 2.11165 3.90446 2.31713C3.70982 2.52261 3.55908 2.7656 3.46146 3.03127C3.36384 3.29694 3.32137 3.57971 3.33666 3.86234M3.33666 3.86234C3.36544 4.39457 3.59712 4.89552 3.98403 5.26213C4.37094 5.62873 4.88365 5.8331 5.41666 5.83317H13.3333C14.905 5.83317 15.69 5.83317 16.1783 6.3215C16.6667 6.80984 16.6667 7.59484 16.6667 9.1665V14.9998C16.6667 16.5715 16.6667 17.3565 16.1783 17.8448C15.69 18.3332 14.905 18.3332 13.3333 18.3332H8.33666C5.97916 18.3332 4.80082 18.3332 4.06832 17.6007C3.33666 16.869 3.33666 15.6898 3.33666 13.3332V3.86234ZM3.33666 3.86234V3.75067M5.41666 3.74984H13.3333C14.1192 3.74984 14.5117 3.74984 14.7558 3.994C15 4.23817 15 4.63067 15 5.4165M12.9167 10.4165H7.08332M10.4167 13.7498H7.08332" stroke="#161616" stroke-width="1.5" stroke-linecap="round" stroke-linejoin="round"/>
</svg>
