<svg width="15" height="15" viewBox="0 0 15 15" fill="none" xmlns="http://www.w3.org/2000/svg">
<path d="M7.16667 4.16758C7.16667 4.16758 7.71933 1.05758 10.8373 0.513576C11.3813 0.418242 11.8333 0.877576 11.8333 1.42958V9.50491C11.8333 9.87291 11.5333 10.1662 11.1667 10.2069C7.758 10.5856 7.16667 13.8342 7.16667 13.8342M7.16667 4.16758V13.8342M7.16667 4.16758C5.946 3.09224 4.362 2.49891 2.722 2.50091C2.59889 2.50091 2.47667 2.50424 2.35533 2.51091C1.606 2.55024 1.23133 2.57024 0.866 2.95624C0.5 3.34224 0.5 3.81758 0.5 4.76958V10.2762C0.5 11.0976 0.5 11.5076 0.647333 11.7376C0.715061 11.8552 0.812548 11.9529 0.93 12.0209C1.16 12.1676 1.68067 12.1676 2.722 12.1676C4.35708 12.1633 5.93751 12.756 7.16667 13.8342" stroke="white" stroke-linecap="round" stroke-linejoin="round"/>
<path d="M7.16675 13.835C8.3959 12.7567 9.97633 12.1641 11.6114 12.1683C12.6527 12.1683 13.1734 12.1683 13.4034 12.0216C13.5414 11.933 13.5974 11.8763 13.6861 11.7383C13.8334 11.5083 13.8334 11.0983 13.8334 10.277V4.77031C13.8334 3.81831 13.8334 3.34298 13.4674 2.95698C13.1014 2.57098 12.5821 2.54098 11.8334 2.50098" stroke="white" stroke-linecap="round" stroke-linejoin="round"/>
</svg>
