<svg width="24" height="24" viewBox="0 0 24 24" fill="none" xmlns="http://www.w3.org/2000/svg">
<path d="M12 22C17.5228 22 22 17.5228 22 12C22 6.47715 17.5228 2 12 2C6.47715 2 2 6.47715 2 12C2 17.5228 6.47715 22 12 22Z" stroke="#161616" stroke-width="1.5" stroke-linecap="round" stroke-linejoin="round"/>
<path d="M9.5 9.50005C9.50016 9.06936 9.61158 8.64602 9.82347 8.27105C10.0354 7.89609 10.3405 7.58223 10.7094 7.35988C11.0782 7.13754 11.4983 7.01426 11.9288 7.00199C12.3593 6.98972 12.7857 7.08888 13.1666 7.28986C13.5475 7.49084 13.8701 7.78681 14.103 8.1491C14.3359 8.51139 14.4712 8.9277 14.4959 9.35768C14.5206 9.78766 14.4338 10.2167 14.2439 10.6033C14.054 10.9898 13.7674 11.3208 13.412 11.564C12.728 12.032 12 12.672 12 13.5" stroke="#161616" stroke-width="1.5" stroke-linecap="round" stroke-linejoin="round"/>
<path d="M12 17H12.009" stroke="#161616" stroke-width="1.8" stroke-linecap="round" stroke-linejoin="round"/>
</svg>
