<svg width="16" height="16" viewBox="0 0 16 16" fill="none" xmlns="http://www.w3.org/2000/svg">
<path d="M1.3335 8C1.3335 8.70133 1.4535 9.37467 1.67483 10M1.67483 10H7.3335M1.67483 10C2.08852 11.1701 2.85488 12.1831 3.86832 12.8995C4.88176 13.6159 6.09242 14.0004 7.3335 14C6.30416 14 5.45616 11.6667 5.3455 8.66667M8.67616 6H14.3348M14.3348 6C13.9211 4.8299 13.1548 3.81688 12.1413 3.1005C11.1279 2.38411 9.91724 1.99963 8.67616 2C9.74283 2 10.6155 4.508 10.6728 7.66667M14.3348 6C14.5202 6.526 14.6348 7.08533 14.6668 7.66667" stroke="#161616" stroke-linecap="round" stroke-linejoin="round"/>
<path d="M1.3335 3.5315C1.3335 2.80016 1.3335 2.4335 1.45816 2.1495C1.5915 1.84816 1.8195 1.60616 2.1035 1.46616C2.3715 1.3335 2.71683 1.3335 3.40683 1.3335H4.00016C5.2575 1.3335 5.8855 1.3335 6.27616 1.74683C6.66683 2.16216 6.66683 2.82683 6.66683 4.16016V5.66616C6.66683 6.24683 6.66683 6.5375 6.49083 6.6375C6.31483 6.7375 6.08683 6.57616 5.63083 6.2535L5.56083 6.20483C5.2275 5.96883 5.06083 5.8515 4.8715 5.79083C4.68283 5.73016 4.48216 5.73016 4.0815 5.73016H3.40816C2.71683 5.73016 2.3715 5.73016 2.1035 5.5975C1.81471 5.45271 1.58621 5.21075 1.45816 4.91416C1.3335 4.63016 1.3335 4.26416 1.3335 3.5315ZM14.6668 11.5315C14.6668 10.7995 14.6668 10.4335 14.5422 10.1495C14.4141 9.85291 14.1856 9.61095 13.8968 9.46616C13.6288 9.3335 13.2835 9.3335 12.5935 9.3335H12.0002C10.7428 9.3335 10.1148 9.3335 9.72416 9.74683C9.3335 10.1622 9.3335 10.8268 9.3335 12.1602V13.6662C9.3335 14.2468 9.3335 14.5375 9.5095 14.6375C9.6855 14.7375 9.9135 14.5762 10.3695 14.2535L10.4395 14.2048C10.7728 13.9688 10.9395 13.8515 11.1288 13.7908C11.3175 13.7302 11.5182 13.7302 11.9188 13.7302H12.5922C13.2835 13.7302 13.6288 13.7302 13.8968 13.5975C14.1808 13.4575 14.4095 13.2155 14.5422 12.9142C14.6668 12.6302 14.6668 12.2642 14.6668 11.5315Z" stroke="#161616"/>
</svg>
