<svg width="18" height="22" viewBox="0 0 18 22" fill="none" xmlns="http://www.w3.org/2000/svg">
<path d="M12.25 5.75H5.25M9.249 9.75H5.249M16.75 20.75H2.75C2.21957 20.75 1.71086 20.5393 1.33579 20.1642C0.960714 19.7891 0.75 19.2804 0.75 18.75M0.75 18.75C0.75 18.2196 0.960714 17.7109 1.33579 17.3358C1.71086 16.9607 2.21957 16.75 2.75 16.75H16.75V4.75C16.75 2.864 16.75 1.922 16.164 1.336C15.578 0.75 14.636 0.75 12.75 0.75H6.75C3.922 0.75 2.507 0.75 1.629 1.629C0.75 2.507 0.75 3.922 0.75 6.75V18.75Z" stroke="#161616" stroke-width="1.5" stroke-linecap="round" stroke-linejoin="round"/>
<path d="M16.25 16.75C16.25 16.75 15.25 17.513 15.25 18.75C15.25 19.987 16.25 20.75 16.25 20.75" stroke="#161616" stroke-width="1.5" stroke-linecap="round" stroke-linejoin="round"/>
</svg>
