<svg width="12" height="12" viewBox="0 0 12 12" fill="none" xmlns="http://www.w3.org/2000/svg">
<path d="M11.0002 2.85524V7.64524C11.0002 9.02524 9.88016 10.1452 8.50016 10.1452H3.50016C3.27016 10.1452 3.05016 10.1152 2.83516 10.0552C2.52516 9.97024 2.42516 9.57524 2.65516 9.34524L7.97016 4.03024C8.08016 3.92024 8.24516 3.89524 8.40016 3.92524C8.56016 3.95524 8.73516 3.91024 8.86016 3.79024L10.1452 2.50024C10.6152 2.03024 11.0002 2.18524 11.0002 2.85524Z" fill="#47B881"/>
<path opacity="0.4" d="M7.32 3.67977L2.085 8.91477C1.845 9.15477 1.445 9.09477 1.285 8.79477C1.1 8.45477 1 8.05977 1 7.64477V2.85477C1 2.18477 1.385 2.02977 1.855 2.49977L3.145 3.79477C3.34 3.98477 3.66 3.98477 3.855 3.79477L5.645 1.99977C5.84 1.80477 6.16 1.80477 6.355 1.99977L7.325 2.96977C7.515 3.16477 7.515 3.48477 7.32 3.67977Z" fill="#47B881"/>
</svg>
