<svg width="24" height="24" viewBox="0 0 24 24" fill="none" xmlns="http://www.w3.org/2000/svg">
<path d="M12 20.5C13.81 20.5 15.545 20.321 17.153 19.993C19.163 19.583 20.167 19.379 21.083 18.201C22 17.022 22 15.669 22 12.963V11.037C22 8.33104 22 6.97704 21.083 5.79904C20.167 4.62104 19.163 4.41604 17.153 4.00704C15.4565 3.66699 13.7303 3.49715 12 3.50004C10.19 3.50004 8.455 3.67904 6.847 4.00704C4.837 4.41704 3.833 4.62104 2.917 5.79904C2 6.97804 2 8.33104 2 11.037V12.963C2 15.669 2 17.023 2.917 18.201C3.833 19.379 4.837 19.584 6.847 19.993C8.455 20.321 10.19 20.5 12 20.5Z" stroke="#161616" stroke-width="1.5"/>
<path d="M15.962 12.3128C15.814 12.9188 15.024 13.3528 13.445 14.2238C11.727 15.1708 10.868 15.6438 10.173 15.4608C9.94139 15.401 9.72501 15.293 9.538 15.1438C9 14.7088 9 13.8058 9 11.9998C9 10.1938 9 9.2908 9.538 8.8558C9.72 8.7088 9.938 8.5998 10.173 8.5388C10.868 8.3558 11.727 8.8288 13.445 9.7758C15.025 10.6458 15.814 11.0808 15.962 11.6868C16.012 11.8928 16.012 12.1068 15.962 12.3128Z" stroke="#161616" stroke-width="1.5" stroke-linejoin="round"/>
</svg>
