<svg width="20" height="20" viewBox="0 0 20 20" fill="none" xmlns="http://www.w3.org/2000/svg">
<path d="M14.1663 6.6665V4.99984C14.1663 3.42817 14.1663 2.64317 13.678 2.15484C13.1897 1.6665 12.4047 1.6665 10.833 1.6665H9.16634C7.59467 1.6665 6.80967 1.6665 6.32134 2.15484C5.83301 2.64317 5.83301 3.42817 5.83301 4.99984V6.6665" stroke="#161616" stroke-linecap="round" stroke-linejoin="round"/>
<path d="M8.80322 4.81917C9.17032 4.61903 9.58176 4.51416 9.99988 4.51416C10.418 4.51416 10.8294 4.61903 11.1966 4.81917L15.1916 6.9975C15.586 7.21253 15.9151 7.52985 16.1445 7.91611C16.3738 8.30237 16.4949 8.74328 16.4949 9.1925V13.3075C16.4949 13.7567 16.3738 14.1976 16.1445 14.5839C15.9151 14.9702 15.586 15.2875 15.1916 15.5025L11.1966 17.6808C10.8294 17.881 10.418 17.9858 9.99988 17.9858C9.58176 17.9858 9.17032 17.881 8.80322 17.6808L4.80738 15.5025C4.41313 15.2874 4.08411 14.97 3.85491 14.5837C3.62571 14.1975 3.5048 13.7566 3.50488 13.3075V9.19167C3.5048 8.74254 3.62571 8.30167 3.85491 7.91542C4.08411 7.52918 4.41313 7.2118 4.80738 6.99667L8.80322 4.81917Z" stroke="#161616" stroke-linecap="round" stroke-linejoin="round"/>
<path d="M9.28808 9.6025C9.60475 9.03417 9.76308 8.75 9.99975 8.75C10.2364 8.75 10.3947 9.03417 10.7114 9.6025L10.7931 9.74917C10.8831 9.91083 10.9281 9.99083 10.9981 10.045C11.0689 10.0975 11.1564 10.1175 11.3314 10.1575L11.4897 10.1933C12.1047 10.3325 12.4122 10.4017 12.4856 10.6375C12.5589 10.8725 12.3489 11.1175 11.9297 11.6075L11.8214 11.7342C11.7022 11.8742 11.6422 11.9433 11.6156 12.03C11.5889 12.1167 11.5981 12.2083 11.6156 12.395L11.6322 12.5642C11.6956 13.2175 11.7272 13.545 11.5364 13.69C11.3447 13.8358 11.0564 13.7033 10.4806 13.4383L10.3322 13.3692C10.1681 13.2942 10.0864 13.2567 9.99975 13.2567C9.91308 13.2567 9.83141 13.2942 9.66724 13.3692L9.51891 13.4383C8.94308 13.7033 8.65475 13.8358 8.46308 13.69C8.27141 13.545 8.30391 13.2175 8.36725 12.5642L8.38391 12.395C8.40141 12.2083 8.41058 12.1158 8.38391 12.03C8.35725 11.9433 8.29725 11.8742 8.17808 11.7342L8.06975 11.6075C7.65058 11.1175 7.44058 10.8725 7.51391 10.6375C7.58725 10.4017 7.89475 10.3325 8.50975 10.1933L8.66808 10.1575C8.84308 10.1175 8.93058 10.0975 9.00141 10.045C9.07141 9.99167 9.11641 9.91083 9.20641 9.74917L9.28808 9.6025Z" stroke="#161616" stroke-linecap="round" stroke-linejoin="round"/>
</svg>
