<svg width="14" height="14" viewBox="0 0 14 14" fill="none" xmlns="http://www.w3.org/2000/svg">
<path d="M7.81814 0.9625L8.99148 3.3285C9.15148 3.65783 9.57815 3.97383 9.93815 4.03383L12.0641 4.3905C13.4241 4.61917 13.7441 5.61383 12.7641 6.59517L11.1108 8.26183C10.8308 8.54383 10.6775 9.0885 10.7641 9.4785L11.2375 11.5418C11.6108 13.1752 10.7508 13.8065 9.31748 12.9532L7.32415 11.7632C6.96415 11.5485 6.37081 11.5485 6.00414 11.7632L4.01214 12.9532C2.58548 13.8065 1.71881 13.1678 2.09214 11.5418L2.56548 9.4785C2.65214 9.0885 2.49881 8.54383 2.21881 8.26183L0.565478 6.59517C-0.407189 5.61317 -0.0938553 4.61917 1.26548 4.3905L3.39214 4.03383C3.74548 3.97383 4.17214 3.65783 4.33214 3.3285L5.50548 0.9625C6.14548 -0.320833 7.18548 -0.320833 7.81881 0.9625" fill="#F5A623"/>
</svg>
